<svg xmlns="http://www.w3.org/2000/svg" viewBox="0 0 200 200" fill="none">
  <rect width="200" height="200" rx="40" fill="#f0fdf4"/>
  <path d="M100 30 C60 30 30 60 30 100 C30 140 60 170 100 170 C140 170 170 140 170 100 C170 60 140 30 100 30Z" fill="#4ade80" opacity="0.15"/>
  <path d="M100 50 C75 75 65 95 70 120 C80 100 95 85 120 80 C100 95 88 115 90 140 C105 120 118 100 120 80 C135 85 145 100 140 120 C145 95 135 75 100 50Z" fill="#16a34a"/>
  <path d="M90 140 C92 125 98 110 115 98" stroke="#4ade80" stroke-width="3" stroke-linecap="round"/>
</svg>
